# File created by Blade
# Date/Time:  Tue Jan 27 20:12:02 2015
# Frame Rate: 120.000 fps
#------------------------------------------------------
:FULLY-SPECIFIED
:DEGREES
2914
root 8.705852 32.602615 -4.202312 4.051843 -20.757607 -7.043202
Spine 2.758103 19.161867 -2.063829
Head 29.508598 -8.537212 0.944005
LeftShoulder -18.274831 3.913498 29.488474
LeftArm -25.145914 -42.740558 -60.232853
LeftForeArm -12.912463 -0.000000 98.215705
LeftHand 17.415076 -0.000000 3.485032
LeftHandThumb1 -26.253704 0.000000 33.147579
RightShoulder -19.027781 -23.997707 -21.750414
RightArm 8.123126 -39.607069 91.347303
RightForeArm -23.754891 0.000000 102.482616
RightHand 19.021047 0.000000 -0.082386
RightHandThumb1 -24.326973 -0.000000 -32.862282
LeftUpLeg 4.337509 13.235808 -3.266019
LeftLeg -4.800075 -0.000000 0.000000
LeftFoot -17.851786 21.175950 -17.612894
LeftToeBase 23.446833 -0.000000 -0.000000
RightUpLeg 9.802640 -54.582259 -21.614131
RightLeg 19.039591 -0.000000 -0.000000
RightFoot 7.779150 -27.329432 18.289356
RightToeBase 18.535913 -0.000000 -0.000000
2915
root 8.691754 32.602254 -4.191677 3.973613 -20.582708 -7.019817
Spine 2.806325 19.072359 -2.054590
Head 29.478369 -8.599350 1.018686
LeftShoulder -18.261619 3.864091 29.550627
LeftArm -25.092077 -42.695558 -60.236602
LeftForeArm -12.887264 -0.000000 98.073257
LeftHand 17.476356 -0.000000 3.504531
LeftHandThumb1 -26.253704 0.000000 33.147579
RightShoulder -19.036345 -24.016586 -21.731003
RightArm 8.124115 -39.620809 91.367292
RightForeArm -23.774589 0.000000 102.494585
RightHand 19.020316 -0.000000 -0.141080
RightHandThumb1 -24.326973 -0.000000 -32.862282
LeftUpLeg 4.401050 13.139276 -3.253893
LeftLeg -4.775828 -0.000000 0.000000
LeftFoot -17.859418 21.193044 -17.561186
LeftToeBase 23.469281 -0.000000 -0.000000
RightUpLeg 10.391950 -55.446162 -22.168469
RightLeg 20.552024 -0.000000 -0.000000
RightFoot 7.188916 -27.173843 18.374390
RightToeBase 19.073790 -0.000000 -0.000000
2916
root 8.679919 32.603276 -4.187296 3.932014 -20.431695 -7.003075
Spine 2.831365 19.000016 -2.043226
Head 29.437310 -8.650406 1.062058
LeftShoulder -18.243321 3.848800 29.580896
LeftArm -24.993243 -42.683351 -60.262739
LeftForeArm -12.856823 -0.000000 97.928500
LeftHand 17.511791 -0.000000 3.553328
LeftHandThumb1 -26.253704 0.000000 33.147579
RightShoulder -19.033798 -24.028930 -21.725063
RightArm 8.130003 -39.624882 91.396006
RightForeArm -23.752560 0.000000 102.501960
RightHand 19.007483 -0.000000 -0.145469
RightHandThumb1 -24.326973 -0.000000 -32.862282
LeftUpLeg 4.401595 13.045437 -3.243776
LeftLeg -4.714930 -0.000000 0.000000
LeftFoot -17.863635 21.206478 -17.510597
LeftToeBase 23.469524 -0.000000 -0.000000
RightUpLeg 10.837323 -56.203807 -22.585300
RightLeg 22.111111 -0.000000 -0.000000
RightFoot 7.068391 -27.323141 17.942235
RightToeBase 18.669103 -0.000000 -0.000000
2917
root 8.667589 32.602945 -4.183426 3.894254 -20.298172 -6.986333
Spine 2.856080 18.955467 -2.046533
Head 29.361770 -8.659758 1.149690
LeftShoulder -18.214522 3.798482 29.636003
LeftArm -24.943722 -42.654814 -60.258763
LeftForeArm -12.823641 -0.000000 97.800916
LeftHand 17.485661 -0.000000 3.639497
LeftHandThumb1 -26.253704 0.000000 33.147579
RightShoulder -19.060578 -24.027580 -21.715627
RightArm 8.135155 -39.650765 91.419856
RightForeArm -23.734099 -0.000000 102.504976
RightHand 18.990306 -0.000000 -0.207019
RightHandThumb1 -24.326973 -0.000000 -32.862282
LeftUpLeg 4.400763 12.970221 -3.239700
LeftLeg -4.648887 -0.000000 0.000000
LeftFoot -17.805167 21.264173 -17.270207
LeftToeBase 23.349544 -0.000000 -0.000000
RightUpLeg 11.250383 -56.907648 -23.023102
RightLeg 23.856907 -0.000000 -0.000000
RightFoot 6.892021 -27.575768 17.645130
RightToeBase 18.075782 -0.000000 -0.000000
2918
root 8.657166 32.602727 -4.176407 3.830453 -20.166292 -6.944454
Spine 2.898878 18.905285 -2.065722
Head 29.283626 -8.668527 1.234418
LeftShoulder -18.195723 3.828423 29.679272
LeftArm -24.800369 -42.676200 -60.339114
LeftForeArm -12.771258 -0.000000 97.653258
LeftHand 17.594021 -0.000000 3.562049
LeftHandThumb1 -26.253704 0.000000 33.147579
RightShoulder -19.071911 -24.023940 -21.712373
RightArm 8.124570 -39.663233 91.457403
RightForeArm -23.734314 -0.000000 102.519167
RightHand 18.969827 -0.000000 -0.213116
RightHandThumb1 -24.326973 -0.000000 -32.862282
LeftUpLeg 4.431045 12.881852 -3.257839
LeftLeg -4.617213 -0.000000 0.000000
LeftFoot -17.768941 21.333308 -17.171268
LeftToeBase 23.288844 -0.000000 -0.000000
RightUpLeg 11.723994 -57.661636 -23.599213
RightLeg 25.709140 -0.000000 -0.000000
RightFoot 6.343135 -28.008370 17.804339
RightToeBase 18.471455 -0.000000 -0.000000
2919
root 8.647818 32.603065 -4.172688 3.798565 -20.060728 -6.906294
Spine 2.910829 18.872125 -2.095623
Head 29.199938 -8.691877 1.295380
LeftShoulder -18.166529 3.825679 29.714960
LeftArm -24.728624 -42.689507 -60.337496
LeftForeArm -12.761663 -0.000000 97.524075
LeftHand 17.536558 0.000000 3.571285
LeftHandThumb1 -26.253704 0.000000 33.147579
RightShoulder -19.069275 -24.007753 -21.720026
RightArm 8.087531 -39.666718 91.523490
RightForeArm -23.750106 -0.000000 102.530855
RightHand 18.961062 -0.000000 -0.267317
RightHandThumb1 -24.326973 -0.000000 -32.862282
LeftUpLeg 4.423165 12.793491 -3.273411
LeftLeg -4.565505 -0.000000 0.000000
LeftFoot -17.772043 21.346034 -17.152915
LeftToeBase 23.270184 -0.000000 -0.000000
RightUpLeg 12.110338 -58.307778 -24.060614
RightLeg 27.561850 -0.000000 -0.000000
RightFoot 5.641721 -28.566185 18.126226
RightToeBase 18.754869 -0.000000 -0.000000
2920
root 8.641175 32.604462 -4.172512 3.783671 -19.984738 -6.871290
Spine 2.921833 18.846442 -2.114260
Head 29.102810 -8.688089 1.324559
LeftShoulder -18.154709 3.835294 29.722264
LeftArm -24.646748 -42.726537 -60.345916
LeftForeArm -12.714354 0.000000 97.394989
LeftHand 17.527188 -0.000000 3.566268
LeftHandThumb1 -26.253704 0.000000 33.147579
RightShoulder -19.061735 -23.988732 -21.740506
RightArm 8.092869 -39.685054 91.559197
RightForeArm -23.730313 -0.000000 102.531992
RightHand 18.960274 -0.000000 -0.291018
RightHandThumb1 -24.326973 -0.000000 -32.862282
LeftUpLeg 4.406251 12.698770 -3.284927
LeftLeg -4.530632 -0.000000 0.000000
LeftFoot -17.783251 21.326320 -17.218755
LeftToeBase 23.329638 -0.000000 -0.000000
RightUpLeg 12.360070 -58.730938 -24.367293
RightLeg 29.485042 -0.000000 -0.000000
RightFoot 4.962875 -29.022913 18.554421
RightToeBase 18.461420 -0.000000 -0.000000
2921
root 8.628127 32.605899 -4.173705 3.766072 -19.938651 -6.893827
Spine 2.964685 18.839951 -2.078448
Head 28.994035 -8.683086 1.350768
LeftShoulder -18.139305 3.813981 29.723070
LeftArm -24.636622 -42.759763 -60.286601
LeftForeArm -12.726754 -0.000000 97.275796
LeftHand 17.601220 -0.000000 3.624133
LeftHandThumb1 -26.253704 0.000000 33.147579
RightShoulder -19.045705 -23.955733 -21.765558
RightArm 8.093598 -39.703958 91.597383
RightForeArm -23.748180 -0.000000 102.539722
RightHand 18.970866 -0.000000 -0.332520
RightHandThumb1 -24.326973 -0.000000 -32.862282
LeftUpLeg 4.426689 12.685778 -3.238243
LeftLeg -4.522710 -0.000000 0.000000
LeftFoot -17.812657 21.330241 -17.228566
LeftToeBase 23.368587 -0.000000 -0.000000
RightUpLeg 12.600570 -59.137334 -24.607446
RightLeg 31.418148 -0.000000 -0.000000
RightFoot 4.457779 -29.567520 18.912418
RightToeBase 18.564443 -0.000000 -0.000000
2922
root 8.619249 32.605902 -4.172920 3.724365 -19.894527 -6.861577
Spine 3.017815 18.824238 -2.093582
Head 28.866702 -8.660082 1.359490
LeftShoulder -18.129778 3.797660 29.706518
LeftArm -24.612825 -42.805442 -60.209956
LeftForeArm -12.688512 -0.000000 97.183811
LeftHand 17.494015 -0.000000 3.720509
LeftHandThumb1 -26.253704 0.000000 33.147579
RightShoulder -19.034883 -23.950993 -21.772906
RightArm 8.158936 -39.740989 91.574041
RightForeArm -23.727700 -0.000000 102.561381
RightHand 18.980005 -0.000000 -0.317011
RightHandThumb1 -24.326973 -0.000000 -32.862282
LeftUpLeg 4.454147 12.658722 -3.236170
LeftLeg -4.507098 -0.000000 0.000000
LeftFoot -17.813836 21.278795 -17.294521
LeftToeBase 23.368232 -0.000000 -0.000000
RightUpLeg 12.894149 -59.595199 -24.988595
RightLeg 33.433084 -0.000000 -0.000000
RightFoot 4.508772 -29.980415 18.552899
RightToeBase 18.766718 -0.000000 -0.000000
2923
root 8.608693 32.601617 -4.167321 3.630479 -19.846106 -6.815638
Spine 3.120314 18.791695 -2.110877
Head 28.731051 -8.647342 1.365308
LeftShoulder -18.116666 3.793762 29.727869
LeftArm -24.611725 -42.863671 -60.152326
LeftForeArm -12.698698 -0.000000 97.078502
LeftHand 17.458499 -0.000000 3.773260
LeftHandThumb1 -26.253704 0.000000 33.147579
RightShoulder -19.014590 -23.924888 -21.824048
RightArm 8.181897 -39.779216 91.600424
RightForeArm -23.731297 0.000000 102.588072
RightHand 18.962948 0.000000 -0.305548
RightHandThumb1 -24.326973 -0.000000 -32.862282
LeftUpLeg 4.557489 12.631550 -3.261384
LeftLeg -4.547365 -0.000000 0.000000
LeftFoot -17.788262 21.401004 -17.175814
LeftToeBase 23.327802 -0.000000 -0.000000
RightUpLeg 13.312402 -60.140892 -25.602262
RightLeg 35.659576 -0.000000 -0.000000
RightFoot 4.803383 -30.220889 17.859761
RightToeBase 19.082630 -0.000000 -0.000000
2924
root 8.603023 32.598838 -4.165505 3.570966 -19.830334 -6.746661
Spine 3.181828 18.777290 -2.157137
Head 28.614552 -8.630624 1.336082
LeftShoulder -18.119919 3.816359 29.716395
LeftArm -24.554301 -42.956811 -60.123539
LeftForeArm -12.675616 -0.000000 96.959128
LeftHand 17.459622 -0.000000 3.721989
LeftHandThumb1 -26.253704 0.000000 33.147579
RightShoulder -18.969059 -23.906369 -21.865818
RightArm 8.206633 -39.798750 91.622412
RightForeArm -23.774805 -0.000000 102.624683
RightHand 18.967632 -0.000000 -0.265382
RightHandThumb1 -24.326973 -0.000000 -32.862282
LeftUpLeg 4.614477 12.588659 -3.305388
LeftLeg -4.574441 -0.000000 0.000000
LeftFoot -17.783331 21.389641 -17.226396
LeftToeBase 23.388447 -0.000000 -0.000000
RightUpLeg 13.576845 -60.572347 -26.066690
RightLeg 37.857830 -0.000000 -0.000000
RightFoot 4.959849 -30.400160 17.478343
RightToeBase 19.411585 -0.000000 -0.000000
